<?xml version="1.0" encoding="UTF-8" standalone="no"?>
<!DOCTYPE svg PUBLIC "-//W3C//DTD SVG 1.1//EN" "http://www.w3.org/Graphics/SVG/1.1/DTD/svg11.dtd">
<svg width="100%" height="100%" viewBox="0 0 1263 188" version="1.1" xmlns="http://www.w3.org/2000/svg" xmlns:xlink="http://www.w3.org/1999/xlink" xml:space="preserve" xmlns:serif="http://www.serif.com/" style="fill-rule:evenodd;clip-rule:evenodd;stroke-linecap:round;stroke-linejoin:round;stroke-miterlimit:1.5;">
    <g transform="matrix(1,0,0,1,-4346,-6849)">
        <g transform="matrix(1,-0.0005477,0.000406157,0.741568,4110.1,6569.04)">
            <rect x="236.22" y="377.953" width="236.22" height="47.244" style="fill:black;stroke:black;stroke-width:1.14px;"/>
        </g>
        <g transform="matrix(1,-0.0005477,0.000406157,0.741568,4110.1,6722.34)">
            <rect x="236.22" y="377.953" width="236.22" height="47.244" style="fill:black;stroke:black;stroke-width:1.14px;"/>
        </g>
        <g transform="matrix(1.0625,-0.000581931,0.0005477,1,4095.22,6448.99)">
            <path d="M236.252,477.296L330.706,477.347L330.722,512.78L236.235,512.729L236.252,477.296Z" style="fill:black;stroke:black;stroke-width:0.97px;"/>
        </g>
        <g transform="matrix(1.0625,-0.000581931,0.0005477,1,4231.04,6448.99)">
            <path d="M236.252,477.296L330.706,477.347L330.722,512.78L236.235,512.729L236.252,477.296Z" style="fill:black;stroke:black;stroke-width:0.97px;"/>
        </g>
        <g transform="matrix(263.82,-0.144494,0.144494,263.82,4606.06,7037.82)">
            <path d="M0.091,-0.708L0.34,-0.708C0.385,-0.708 0.423,-0.702 0.452,-0.69C0.481,-0.677 0.505,-0.662 0.522,-0.643C0.539,-0.623 0.55,-0.602 0.557,-0.579C0.564,-0.555 0.567,-0.532 0.567,-0.51C0.567,-0.488 0.564,-0.465 0.557,-0.442C0.55,-0.418 0.539,-0.397 0.522,-0.378C0.505,-0.359 0.481,-0.343 0.452,-0.331C0.423,-0.318 0.385,-0.312 0.34,-0.312L0.187,-0.312L0.187,-0L0.091,-0L0.091,-0.708ZM0.187,-0.396L0.313,-0.396C0.332,-0.396 0.35,-0.398 0.369,-0.401C0.387,-0.404 0.403,-0.409 0.418,-0.417C0.432,-0.425 0.443,-0.436 0.452,-0.452C0.461,-0.467 0.465,-0.486 0.465,-0.51C0.465,-0.534 0.461,-0.554 0.452,-0.569C0.443,-0.584 0.432,-0.595 0.418,-0.603C0.403,-0.611 0.387,-0.616 0.369,-0.62C0.35,-0.623 0.332,-0.624 0.313,-0.624L0.187,-0.624L0.187,-0.396Z" style="fill:black;fill-rule:nonzero;"/>
        </g>
        <g transform="matrix(263.82,-0.144494,0.144494,263.82,4759.86,7034.67)">
            <path d="M0.141,-0.237C0.141,-0.213 0.145,-0.191 0.152,-0.171C0.159,-0.15 0.17,-0.133 0.183,-0.119C0.196,-0.104 0.213,-0.093 0.232,-0.085C0.251,-0.076 0.273,-0.072 0.297,-0.072C0.321,-0.072 0.343,-0.076 0.362,-0.085C0.381,-0.093 0.398,-0.104 0.411,-0.119C0.424,-0.133 0.435,-0.15 0.442,-0.171C0.449,-0.191 0.453,-0.213 0.453,-0.237C0.453,-0.261 0.449,-0.283 0.442,-0.304C0.435,-0.324 0.424,-0.341 0.411,-0.356C0.398,-0.37 0.381,-0.381 0.362,-0.39C0.343,-0.398 0.321,-0.402 0.297,-0.402C0.273,-0.402 0.251,-0.398 0.232,-0.39C0.213,-0.381 0.196,-0.37 0.183,-0.356C0.17,-0.341 0.159,-0.324 0.152,-0.304C0.145,-0.283 0.141,-0.261 0.141,-0.237ZM0.045,-0.237C0.045,-0.272 0.051,-0.304 0.065,-0.334C0.078,-0.364 0.095,-0.39 0.118,-0.413C0.141,-0.436 0.167,-0.454 0.198,-0.467C0.229,-0.48 0.262,-0.486 0.297,-0.486C0.332,-0.486 0.365,-0.48 0.396,-0.467C0.427,-0.454 0.453,-0.436 0.476,-0.413C0.499,-0.39 0.517,-0.364 0.53,-0.334C0.543,-0.304 0.549,-0.272 0.549,-0.237C0.549,-0.202 0.543,-0.17 0.53,-0.14C0.517,-0.109 0.499,-0.083 0.476,-0.061C0.453,-0.038 0.427,-0.021 0.396,-0.008C0.365,0.006 0.332,0.012 0.297,0.012C0.262,0.012 0.229,0.006 0.198,-0.008C0.167,-0.021 0.141,-0.038 0.118,-0.061C0.095,-0.083 0.078,-0.109 0.065,-0.14C0.051,-0.17 0.045,-0.202 0.045,-0.237Z" style="fill:black;fill-rule:nonzero;"/>
        </g>
        <g transform="matrix(263.82,-0.144494,0.144494,263.82,4917.37,7038.24)">
            <rect x="0.075" y="-0.756" width="0.09" height="0.756" style="fill:black;fill-rule:nonzero;"/>
        </g>
        <g transform="matrix(263.82,-0.144494,0.144494,263.82,4988.47,7037.53)">
            <path d="M0.075,-0.474L0.165,-0.474L0.165,-0L0.075,-0L0.075,-0.474ZM0.054,-0.644C0.054,-0.662 0.061,-0.678 0.074,-0.691C0.087,-0.704 0.102,-0.71 0.12,-0.71C0.138,-0.71 0.154,-0.704 0.167,-0.691C0.18,-0.678 0.186,-0.662 0.186,-0.644C0.186,-0.626 0.18,-0.611 0.167,-0.598C0.154,-0.584 0.138,-0.578 0.12,-0.578C0.102,-0.578 0.087,-0.584 0.074,-0.598C0.061,-0.611 0.054,-0.626 0.054,-0.644Z" style="fill:black;fill-rule:nonzero;"/>
        </g>
        <g transform="matrix(263.82,-0.144494,0.144494,263.82,5053.75,7035.1)">
            <path d="M0.537,0.011L0.448,0.011L0.448,-0.068L0.451,-0.068C0.434,-0.043 0.41,-0.023 0.38,-0.009C0.349,0.005 0.318,0.012 0.286,0.012C0.249,0.012 0.216,0.006 0.187,-0.007C0.157,-0.02 0.132,-0.037 0.111,-0.06C0.09,-0.083 0.073,-0.109 0.062,-0.139C0.051,-0.169 0.045,-0.202 0.045,-0.237C0.045,-0.272 0.051,-0.305 0.062,-0.336C0.073,-0.366 0.09,-0.392 0.111,-0.415C0.132,-0.437 0.157,-0.454 0.187,-0.467C0.216,-0.48 0.249,-0.486 0.286,-0.486C0.32,-0.486 0.352,-0.479 0.382,-0.465C0.412,-0.45 0.435,-0.431 0.451,-0.406L0.453,-0.406L0.453,-0.756L0.543,-0.756L0.537,0.011ZM0.297,-0.072C0.321,-0.072 0.343,-0.076 0.362,-0.085C0.381,-0.093 0.398,-0.104 0.411,-0.119C0.424,-0.133 0.435,-0.15 0.442,-0.171C0.449,-0.191 0.453,-0.213 0.453,-0.237C0.453,-0.261 0.449,-0.283 0.442,-0.304C0.435,-0.324 0.424,-0.341 0.411,-0.356C0.398,-0.37 0.381,-0.381 0.362,-0.39C0.343,-0.398 0.321,-0.402 0.297,-0.402C0.273,-0.402 0.251,-0.398 0.232,-0.39C0.213,-0.381 0.196,-0.37 0.183,-0.356C0.17,-0.341 0.159,-0.324 0.152,-0.304C0.145,-0.283 0.141,-0.261 0.141,-0.237C0.141,-0.213 0.145,-0.191 0.152,-0.171C0.159,-0.15 0.17,-0.133 0.183,-0.119C0.196,-0.104 0.213,-0.093 0.232,-0.085C0.251,-0.076 0.273,-0.072 0.297,-0.072Z" style="fill:black;fill-rule:nonzero;"/>
        </g>
        <g transform="matrix(263.82,-0.144494,0.144494,263.82,5202.48,7034.4)">
            <path d="M0.136,-0.204C0.136,-0.183 0.14,-0.165 0.15,-0.148C0.159,-0.13 0.17,-0.116 0.185,-0.104C0.2,-0.092 0.217,-0.083 0.236,-0.076C0.255,-0.069 0.275,-0.066 0.296,-0.066C0.324,-0.066 0.348,-0.073 0.369,-0.086C0.39,-0.098 0.409,-0.116 0.426,-0.137L0.494,-0.085C0.444,-0.02 0.374,0.012 0.284,0.012C0.247,0.012 0.213,0.006 0.183,-0.007C0.152,-0.02 0.127,-0.037 0.106,-0.06C0.085,-0.082 0.068,-0.108 0.057,-0.139C0.046,-0.169 0.04,-0.202 0.04,-0.237C0.04,-0.272 0.046,-0.305 0.059,-0.336C0.071,-0.366 0.088,-0.392 0.11,-0.415C0.131,-0.437 0.157,-0.454 0.187,-0.467C0.217,-0.48 0.25,-0.486 0.285,-0.486C0.327,-0.486 0.363,-0.479 0.392,-0.464C0.421,-0.449 0.444,-0.43 0.463,-0.407C0.482,-0.383 0.495,-0.356 0.504,-0.327C0.512,-0.297 0.516,-0.267 0.516,-0.236L0.516,-0.204L0.136,-0.204ZM0.42,-0.276C0.419,-0.296 0.416,-0.314 0.411,-0.331C0.405,-0.348 0.396,-0.362 0.385,-0.375C0.374,-0.387 0.36,-0.397 0.343,-0.404C0.326,-0.411 0.306,-0.414 0.283,-0.414C0.261,-0.414 0.241,-0.41 0.223,-0.402C0.204,-0.393 0.189,-0.382 0.176,-0.369C0.163,-0.356 0.154,-0.341 0.147,-0.325C0.139,-0.308 0.136,-0.292 0.136,-0.276L0.42,-0.276Z" style="fill:black;fill-rule:nonzero;"/>
        </g>
        <g transform="matrix(263.82,-0.144494,0.144494,263.82,5340.95,7033.55)">
            <path d="M0.407,-0.348C0.39,-0.365 0.373,-0.379 0.355,-0.388C0.336,-0.397 0.314,-0.401 0.289,-0.401C0.264,-0.401 0.243,-0.397 0.225,-0.388C0.206,-0.379 0.191,-0.366 0.179,-0.351C0.166,-0.335 0.157,-0.317 0.151,-0.297C0.144,-0.276 0.141,-0.255 0.141,-0.233C0.141,-0.211 0.145,-0.19 0.152,-0.171C0.159,-0.151 0.17,-0.134 0.183,-0.119C0.196,-0.104 0.212,-0.093 0.231,-0.085C0.25,-0.076 0.271,-0.072 0.294,-0.072C0.319,-0.072 0.341,-0.077 0.359,-0.086C0.377,-0.095 0.394,-0.108 0.409,-0.125L0.473,-0.061C0.45,-0.035 0.423,-0.016 0.392,-0.005C0.361,0.006 0.328,0.012 0.293,0.012C0.256,0.012 0.223,0.006 0.193,-0.006C0.162,-0.018 0.136,-0.035 0.114,-0.057C0.092,-0.078 0.075,-0.104 0.063,-0.135C0.051,-0.165 0.045,-0.198 0.045,-0.235C0.045,-0.272 0.051,-0.305 0.063,-0.336C0.075,-0.367 0.092,-0.393 0.114,-0.415C0.135,-0.437 0.161,-0.454 0.192,-0.467C0.222,-0.479 0.256,-0.485 0.293,-0.485C0.328,-0.485 0.361,-0.479 0.393,-0.467C0.424,-0.454 0.452,-0.435 0.475,-0.41L0.407,-0.348Z" style="fill:black;fill-rule:nonzero;"/>
        </g>
        <g transform="matrix(263.82,-0.144494,0.144494,263.82,5475.57,7036.95)">
            <path d="M0.068,-0.756L0.158,-0.756L0.158,-0.268L0.362,-0.473L0.487,-0.473L0.266,-0.258L0.506,-0L0.378,-0L0.158,-0.246L0.158,-0L0.068,-0L0.068,-0.756Z" style="fill:black;fill-rule:nonzero;"/>
        </g>
    </g>
</svg>
